<?xml version="1.0" encoding="UTF-8"?>
<svg id="Layer_1" data-name="Layer 1" xmlns="http://www.w3.org/2000/svg" viewBox="0 0 212.96 229.48">
  <defs>
    <style>
      .cls-1 {
        fill: currentColor;
      }
    </style>
  </defs>
  <path class="cls-1" d="M24.26,26.43c.75-5.75.73-11.65,1.82-17.34C27.28,4.31,31.45.68,36.31.08c42.34-.05,98.32-.12,140.7-.04,3.91,0,7.69,2.38,9.27,5.98,1.66,3.75,2.48,17.74,2.5,20.87-1.81-3.57-7.91-2.47-11.24-2.51,0,0-98.89.1-98.89.1-11.41.21-39.42-.35-50.45.1-1.64.14-2.69.84-3.95,1.86"/>
  <path class="cls-1" d="M162.55,156.07l-.1.21c2.2-5.13,3.99-10.45,5.97-15.66,1.59-4.2,2.82-9.58,7.42-11.43,4.17-1.34,8.83-.41,13.16-.56,6.5.4,15.83-2.23,19.34,5.02.7,1.79.44,35.98.07,37.85,6.59,1.48,3.86,10.22,4.27,15.11-.42,4.9,2.14,13.24-2.75,16.25-.96.54-1.76.85-2.87.87-6.64-.03-32.96-.21-40.14-.12-53.7.07-108.92.43-162.55-.17-1.83-.53-3.41-1.92-3.93-3.77-.84-3.3-.22-21.89.13-24.3.73-2.22,3-3.88,5.33-3.95,50.08-.09,143.92.19,194.65.05,2.17-.17,6.86.94,8.07-.78-.04-1.08-1.36-1.14-2.2-1.18-55.72.29-146.32.08-201.86.3.32-11.57-.52-23.53.14-35.05.22-1.58.88-2.82,2.11-3.85,3.56-3.15,8.79-2.18,13.17-2.23,4.56-.01,9.14-.11,13.7-.03,7.29-.1,8.55,6.31,10.67,11.84,1.48,3.73,5.58,14.5,7.15,18-2.8-8.64-5.21-17.72-8.66-26.1-1.14-2.4-3.31-4.34-5.9-5.01-3.04-.79-6.75-.38-9.88-.37-6.65.57-17.59-2.15-22.41,3.87.93-10.09,9.89-14.88,18.72-16.94l.02-19.62c-2.71-1.61-13.31-7.17-15.04-9.06-1.11-1.22-.63-4.33-.58-5.95-2.99.27-5.71-.55-5.52-4.07-.28-4.95-.05-10.02-.06-14.99,0-3.08-.37-8.25.2-11.06.21-1.06,1.06-1.61,1.89-2.18l3.85-.13c-.72-17.19,1.28-12.14,15.48-12.86-.23-3.25.23-6.95,3.94-7.89,25.59-.83,91.71,0,118.3-.33,8.11.1,30.4-.18,38.2-.01,3.92.44,7,4.82,5.4,8.59,4.35-.04,8.88-.33,13.21.03.98.35,1.82.95,2.29,1.91.87,1.81.97,8.5.34,10.28,1.83-.17,3.99-.25,5.1,1.49.61,2.75.73,27.71.26,28.9-1.2,2.7-3.32,2.34-5.75,2.41.54,1.1.46,4.02.02,5.16-.62,1.65-13.11,8.43-15.39,9.44.43,1.75.51,16.56-.08,19.23,8.79,2.26,20.21,8.27,19.11,18.84-.85-2.49-3.67-4.03-6.12-4.53-5.21-.13-24.53-1.92-28.9,1.53-4.6,3.33-5.29,10.2-7.22,15.25-1.25,3.73-3,7.9-3.76,11.73M32.45,32.25c-.63.3-1.46.68-1.68,1.41-.7,13.89-.26,31.43-.18,45.64,6.05-4.89,16.01-4.13,23.48-5.07,30.71-2.56,61.61-2.87,92.36-.93,9.01.66,18.09,1.03,27.04,2.29.93.16,2.22.3,3.05.74,1.66.4,5.12,1.54,5.95,3.13.61-1.89.22-13.2.22-15.95-.18-9.84.7-19.91-.26-29.67-.34-.67-.95-1.29-1.69-1.52-22.46-.42-123.96.11-148.29-.06M20.81,37.58c-3.16.03-6.32.03-9.48.01-.03,3.13-.05,6.26-.06,9.38,2-.02,3.92-.2,5.42,1.38.42.45.43,1.59.47,2.18.31,4.49.05,9.14.04,13.64-.27,3.08,1.08,12.58-1.2,14.21-1.4,1.17-3.29,1.02-5,1.01.01,1.34-.03,2.71.09,4.05,4.13,2.27,8.16,4.9,12.32,7.1l-.03-52.95-2.57-.02ZM191.89,37.76l-2.35.05c.14.31.23.61.24.96.02,4.66.32,50.51-.41,51.36,2.75-1.03,10.05-5.38,12.16-6.74.24-.95.61-3.03.02-3.88-1.67.03-3.65.27-4.96-1-2.08-2.53-.82-9.59-1.01-12.95.03-4.8-.12-9.61,0-14.41.02-.92.02-2.73.69-3.41,1.49-1.5,3.44-1.22,5.36-1.18.44-1.23.6-7.59-.07-8.76-3.1-.36-6.54-.06-9.66-.03M105.03,96.23c-14.31,1.24-29.07,1.55-43.25,3.38-3.04.79-5.29,3.7-5.86,6.71-.35,9.96,1.34,25.61,1.62,35.71.57,5.47-1.1,12.32,3.96,16.07,1.29,1.06,2.37,1.57,4.03,1.83,25.09.35,57.44.35,82.52-.02,3.11-.47,5.67-3.05,6.56-6.01.54-2.43.52-5.11.67-7.59l.83-13.19,1.12-16.7c.27-4.97,1.87-10.94-2.4-14.69-2.44-2.46-6.06-2.43-9.28-2.63-13.4-.85-27.11-2.69-40.51-2.86M24.05,136.58c-7.01.84-11.4,8.58-8.62,15.04,3.47,8.77,16.44,8.86,19.97.06,3.35-7.54-3.1-16.36-11.35-15.11M186.19,137.18c-11.67,1.61-13.03,17.55-1.8,21.04,5.57,1.75,12.08-1.42,13.88-7.03,2.73-7.58-4.43-15.05-12.09-14.01M162.34,156.64l.1.09-.1-.09ZM162.13,157.28h.12-.12ZM51.62,159.01l.19.1-.19-.1ZM172.17,183.59c-1.26.61-2.38,1.23-2.89,2.63-.77,2.61-.74,7.29,2.51,8.18,1.76.5,19.49.45,22.1.22,1.17-.23,2.06-.6,2.76-1.63,2.24-3.44.97-9.4-3.78-9.57-6.81.08-13.91-.24-20.7.16M17.68,183.7c-2.84,2.12-1.83,6.09-1.76,9.15.68.84,1.2,1.57,2.35,1.7,3.57.41,7.46.11,11.07.1,4.26,0,8.64.21,12.89,0,1.01-.77,1.73-1.42,1.92-2.76.31-2.64.82-8.2-3.04-8.3-7.14.05-16.23.06-23.43.1"/>
  <path class="cls-1" d="M109.36,155.55c-9.9-.17-33.45.28-43.03-.08-5.52-.84-3.69-8.71-4.3-12.75-.46-10.22-1.74-24.78-1.91-34.92.07-1.06.37-2.02,1.06-2.85.52-.64,1.1-1.05,1.91-1.24,13.48-1.72,27.55-1.57,41.1-3.1,3.04-.34,6.14.11,9.17.35,8.57.68,18.63,1.26,27.13,2,3.67.51,8.3-.22,11.34,2.18,2.55,2.32.77,8.24.88,11.47l-1.09,17.32c-.57,4.52-.49,13.57-1.19,17.97-.16.98-.58,1.88-1.29,2.58-.52.53-1.08.82-1.82.92-8.24.68-29.36-.12-37.97.15M72.05,110.64c-.94.92-1.08,3.02-.27,4.05,9.6,1.3,58.37.06,69.21.48,1.62-2.02.81-5.01-2.15-4.61-20.63,0-46.19-.11-66.79.09M72.26,118.48c-.72.62-.8,1.17-.87,2.08-.45,3.17,2.94,2.55,5.05,2.55,13.91-.13,51.1.1,64.45,0,1.55-1.51,1.48-4.9-1.3-4.67-20.82-.05-46.51-.1-67.34.05M72.74,126.36c-.51.35-.83.5-.96,1.15-.19,1.16-.38,3.45,1.3,3.47,13.9.25,53.11-.08,67.57.07.53-.35.94-.61,1.06-1.27.24-1.35,0-3.55-1.8-3.45-20.57-.11-46.58-.1-67.17.02M73.11,134.25c-1.96.24-2.02,3.62-.53,4.44,1.3.5,60.82.21,67.77.24.55-.22.93-.44,1.16-1.02.44-1.21.27-3.28-1.22-3.65-19.69-.29-47.44-.1-67.17-.01M73.06,142.1c-1.67.16-1.83,3.98-.32,4.4,12.27.79,54.55-.05,67.83.25,1.18-.75,1.63-2.48.89-3.68-.46-.65-1.3-.96-2.07-1.06-20.09,0-46.2-.04-66.34.09"/>
  <path class="cls-1" d="M8.86,205.23c13.7.05,27.69-.03,41.41-.09-.07,3.49-.03,7-.02,10.5.29,5.62.3,11.7-6.25,13.5-3.15.65-7.47.2-10.76.17-5.57-.05-11.14-.05-16.71.02-3.35.13-6.35-2.17-7.24-5.38-.94-3.13-.45-14.77-.43-18.72"/>
  <path class="cls-1" d="M202.01,227.28c-.99,1.66-3.33,1.79-5.06,1.86-9.52-.12-19.65.48-29.09-.16-5.91-1.37-5.22-8.07-5.09-12.8,0,0,.05-10.8.05-10.8h40.98c.96,2.27.43,16.77.13,18.94-.29,1.18-.85,2.33-1.93,2.96"/>
</svg>