<?xml version="1.0" encoding="UTF-8"?>
<svg id="Layer_1" data-name="Layer 1" xmlns="http://www.w3.org/2000/svg" viewBox="0 0 142.75 93.72">
  <defs>
    <style>
      .cls-1 {
        fill: currentColor;
      }
    </style>
  </defs>
  <path class="cls-1" d="M135.49,71.83v19.66c.1,2.91-19.61,3.03-19.61,0v-7.39l19.61-12.28Z"/>
  <path class="cls-1" d="M7.26,71.83v19.66c-.1,2.91,19.61,3.03,19.61,0v-7.39l-19.61-12.28Z"/>
  <path class="cls-1" d="M137.14,42.59c-.12-1.72-.77-3.37-1.85-4.72-2.67-3.37-5.29-5.3-9.5-7.37-4.13-9.08-7.98-19.37-14.07-26.35-1.42-1.63-3.43-2.63-5.6-2.8C93.78.4,82.16,0,71.38,0c-10.8,0-22.44.4-34.77,1.35-2.15.17-4.15,1.15-5.57,2.77-6.3,7.22-10.2,17.87-14.07,26.39-4.23,2.07-6.83,4-9.52,7.37-1.08,1.35-1.73,3-1.83,4.72-.98,14.93.33,24.4,2.87,38.6.43,2.35,2.47,4.05,4.85,4.05h10.83c.95,0,1.9-.12,2.82-.37l.82-.22c.68-.18,1.38-.28,2.1-.28l41.47-.92,41.47.92c.7,0,1.4.1,2.08.28l.82.22c.93.25,1.87.37,2.82.37h10.84c2.38,0,4.42-1.7,4.85-4.05,2.55-14.2,3.85-23.67,2.88-38.6M25.39,26.4c3.11-7.12,5.83-12.36,9.2-17.79.52-.83,1.83-1.02,2.38-1.06,8.16-.63,16.43-1.03,24.7-1.21.77.25,1.44.77,1.83,1.51.54,1.03,1.7,1.57,2.86,1.57h10.06c1.15,0,2.31-.54,2.85-1.57.39-.74,1.06-1.27,1.82-1.52,8.28.18,16.55.58,24.71,1.21.54.04,1.86.23,2.37,1.06,3.36,5.43,6.08,10.67,9.2,17.79.49,1.13-.37,2.4-1.61,2.34-18.65-.82-31.67-1.27-44.43-1.27-12.77,0-25.31.43-44.32,1.27-1.24.06-2.1-1.21-1.6-2.34M36.08,64.65l-.7-1.23h71.98s-.69,1.23-.69,1.23H36.08ZM105.8,66.19l-.7,1.24H37.64s-.7-1.24-.7-1.24h68.85ZM34.86,61.87c.04-.47.26-.91.63-1.23h71.76c.39.32.6.76.63,1.23H34.86ZM37.52,59.09l1.62-1.23h64.48s1.61,1.23,1.61,1.23H37.52ZM13.05,53.66l-1.71-6.91c-.59-2.38.85-3.76,3.2-3.06,7.58,2.28,13.92,5.63,22.22,10.65l-1.88.94c-1.11.55-2.36.77-3.59.62l-18.25-2.25ZM27.8,64.58c0,1.88-3.29,3.42-5.18,3.42-1.88,0-3.41-1.53-3.41-3.42,0-1.88,1.53-3.42,3.41-3.42,1.89,0,5.18,1.53,5.18,3.42M23.31,80.51c-2.09,0-4-1.19-4.92-3.07l-1.12-2.36c-.82-1.68.02-2.84,1.87-2.58l13.98,1.96c1.44.2,2.71,1.06,3.44,2.33l2.12,3.72h-15.38ZM100.55,75.5c-.05.09-.1.18-.17.26h-58.01c-.06-.08-.11-.17-.16-.26l-.55-.97h59.45s-.55.97-.55.97ZM101.97,72.99h-61.18s-.7-1.24-.7-1.24h62.58s-.7,1.24-.7,1.24ZM39.21,70.21l-.7-1.24h65.71s-.69,1.24-.69,1.24H39.21ZM125.47,75.09l-1.12,2.36c-.92,1.88-2.83,3.07-4.92,3.07h-15.38s2.12-3.72,2.12-3.72c.72-1.27,1.99-2.13,3.44-2.33l13.98-1.96c1.85-.26,2.69.9,1.87,2.58M114.95,64.58c0-1.88,3.29-3.42,5.18-3.42s3.42,1.53,3.42,3.42c0,1.88-1.53,3.42-3.42,3.42s-5.18-1.53-5.18-3.42M131.41,46.75l-1.71,6.91-18.25,2.25c-1.23.15-2.48-.06-3.59-.62l-1.88-.94c8.31-5.02,14.64-8.37,22.22-10.65,2.35-.71,3.79.68,3.2,3.06"/>
  <path class="cls-1" d="M3.1,30.61l15.69,2.26v-4.92l-5.92-.57-.14-2.1c-.11-1.61-1.46-2.86-3.07-2.86H3.41c-1.8,0-3.28,1.41-3.36,3.21l-.04.97c-.09,1.92,1.22,3.61,3.09,4.01"/>
  <path class="cls-1" d="M139.65,30.61l-15.69,2.26v-4.92l5.92-.57.14-2.1c.11-1.61,1.46-2.86,3.07-2.86h6.25c1.8,0,3.28,1.41,3.36,3.21l.04.97c.09,1.92-1.22,3.61-3.09,4.01"/>
</svg>