<?xml version="1.0" encoding="UTF-8"?>
<svg id="Layer_1" data-name="Layer 1" xmlns="http://www.w3.org/2000/svg" viewBox="0 0 184.89 196.12">
  <defs>
    <style>
      .cls-1 {
        fill: currentColor;
      }
    </style>
  </defs>
  <path class="cls-1" d="M37.66,127.43c-.9-1.42-2.07-2.67-2.93-4.08-5.8-9.44-8.7-20.51-8.54-31.57.02-1.37,0-2.78,0-4.17l-.07-14.12.02-28.02v-12.15c0-2.43-.2-5.47.23-7.8,2.08-11.16,13.23-16.15,22.97-19.1C61.63,2.67,74.83.42,87.69.1c5.32-.2,10.74-.09,16.05.34,13.72,1.1,35.41,4.9,46.67,12.94,4.19,2.98,7.09,7.09,7.94,12.21.45,2.74.18,6.81.17,9.72v46.93s.03,8.56.03,8.56c0,4.54.04,7.46-.78,11.95-1.27,7.12-3.73,14.08-7.57,20.23-.86,1.39-1.94,2.8-2.89,4.14,5.18,3.58,6.08,10.78,1.64,15.34-3.36,3.44-6.77,3.18-11.17,3.19l-7.05.02c.79,1.3,1.85,2.77,2.73,4.02,5.78-.16,11.82-.05,17.62-.05,1.1,1.4,2.49,2.89,3.7,4.21.93,1.02,2.14,2.42,3.15,3.34-6.31.12-12.87.05-19.2.03,1.02,1.77,4.2,5.8,5.52,7.54.61.02,1.23-.02,1.84-.03,6.02-.02,12.07-.12,18.08,0,1.98,1.79,5.17,5.4,7.07,7.44-7.18-.05-14.35.09-21.59,0,1.43,2.48,4.34,6.28,6.11,8.59l21.94-.03,4.14,4.31c1.25,1.32,2.95,2.74,3.04,4.66.13,1.1-.93,2.44-2.05,2.58-1.73.22-3.8.14-5.56.13l-10.79-.05c-.5,1.98-1.7,3.63-3.91,3.65-4.63.03-9.28.01-13.91-.06-2.54-.04-3.49-1.45-4.36-3.62-5.97.11-12.07.05-18.05.05h-30.54s-56.01,0-56.01,0c-1.58,3.54-3.06,3.8-6.69,3.7-3.34-.1-6.82.07-10.18-.04-2.41-.08-3.41-1.53-4.01-3.69-3.42-.03-6.83-.05-10.25-.03-1.84-.16-4.51.32-6.23-.02-3.74-.73-2.26-4.45-.53-6.31,1.72-1.84,3.21-3.55,4.8-5.29,7.47,0,15.47-.14,22.89.06.39-.48.77-.98,1.12-1.48,1.68-2.41,3.49-4.77,5.07-7.25-6.95.21-14.99.18-21.96.04,1.82-1.9,3.5-3.93,5.27-5.87.49-.55,1.02-1.14,1.62-1.56,6.85-.14,13.69.06,20.53,0,1.68-2.32,3.65-5.06,5.18-7.46l-19.37-.02c2.2-2.42,4.63-5.32,6.97-7.57,5.75-.02,11.79.1,17.51-.03,1.13-1.45,1.96-2.51,2.92-4.09-4-.14-8.32.22-12.26-.06-9.21-.65-13.14-13.04-4.43-18.02M76.72,8.36c-4.28.52-5.95,5.39-2.48,8.1,1.5,1.18,4.39.87,6.28.88l8.12-.03c6.48-.04,13.02.06,19.5-.02,5.35-.59,5.59-7.9.32-8.82-1.19-.21-3-.12-4.24-.12l-6.51.02-20.98-.02ZM71.85,25.41l-16.84.03c-2,0-4,0-6,0-1.78,0-3.33.23-4.67,1.54-2.03,1.99-1.71,4.3-1.71,6.9v20.52c0,3.04-.01,6.08.03,9.11.02,1.07.07,1.86.49,2.85,1.66,3.96,5.48,3.48,8.94,3.48h6.7s19.02-.01,19.02-.01c3.24,0,6.77.05,9.99-.06V25.45c-4.96-.21-10.91-.02-15.97-.03M106.88,25.41c-3.23.01-6.81-.06-10.01.05,0,14.75-.12,29.61.08,44.35h35.76c3.82,0,8.88.81,9.45-4.64.09-.91.04-1.93.05-2.85l.04-6.57c.04-8.04-.03-16.12-.07-24.16.05-1.91-.44-3.52-1.87-4.84-.73-.67-1.58-1.15-2.6-1.21-3.64-.24-7.45-.13-11.09-.11h-19.74ZM143.79,76.74l-35.4,5-11.43,1.66c-.58.08-3.91.64-4.26.62-2.04-.12-4.8-.62-6.87-.92l-13.59-1.88-15.8-2.26c-4.97-.67-10.48-1.31-15.4-2.18,0,.88-.09,5.28.04,5.84,5.64.97,10.95,1.68,16.58,2.47l18.75,2.63c5.28.72,10.56,1.38,15.85,2.07.58.08,3.57-.48,4.3-.59l8.61-1.21c9.49-1.25,19.04-2.48,28.48-4.04,3.31-.55,6.98-.92,10.24-1.52,0-.91.09-4.98-.03-5.64l-.06-.05ZM56.53,96.88c-4.93.52-8.51,4.95-7.98,9.89.52,4.93,4.95,8.51,9.88,7.98,4.94-.52,8.51-4.95,7.99-9.88-.52-4.94-4.95-8.51-9.89-7.99M126.14,96.85c-4.95.64-8.45,5.15-7.82,10.1.62,4.95,5.13,8.46,10.08,7.85,4.97-.61,8.51-5.14,7.88-10.11-.62-4.97-5.17-8.49-10.13-7.85M72.41,145.61l-2.55.04c-.84,1.24-1.87,2.69-2.64,3.95,4.08.04,8.24-.03,12.33-.03h32.46c1.65.02,3.59.06,5.21-.01-.76-1.38-1.68-2.71-2.56-4.02h-25.07c-5.65,0-11.57-.1-17.19.06M122.16,145.58c3.4,5.59,7.65,11.7,11.34,17.12,5.95,8.73,11.91,17.79,18.03,26.38l1.36-.04c-.42-.84-1.05-1.74-1.61-2.51-2.45-3.37-4.68-6.9-7.15-10.25-.6-.81-1.18-1.59-1.75-2.42l-13.93-20.4-3.63-5.24c-.47-.69-1.35-2.05-1.86-2.62-.37-.05-.44-.04-.81-.01M61.66,145.73c-1.11,1.28-2.79,3.95-3.79,5.44l-6.03,8.79-13.71,19.94c-1.62,2.34-3.32,4.64-4.9,7.01-.39.58-1.4,1.77-1.44,2.39.23.11.14.09.38.08.33-.01.81.02,1.07-.16l19.5-28.89,5.4-8.04c.75-1.12,3.8-5.59,4.07-6.49-.27-.06-.27-.07-.55-.06M62.58,157.23c-1.5,2.41-3.6,5.17-4.9,7.5,2.03.08,4.48-.03,6.55-.05h11.02l46.69-.06h4.92c-1.33-2.12-3.36-5.49-4.83-7.41-3.12-.04-6.32.02-9.45.02h-19.5c-10.09,0-20.44-.12-30.51,0M52.8,172.17c-1.96,2.78-3.85,5.73-5.73,8.57l65.6.07c6.32,0,12.61-.08,18.93-.01,1.92,0,3.92.02,5.83-.05-1.74-2.86-4-5.73-5.61-8.54-2.52-.15-5.8-.06-8.4-.06h-16.25s-54.36.03-54.36.03Z"/>
</svg>